# xmcd
#
# Track frame offsets:
#	150
#	15794
#	33269
#	49234
#	64754
#	86316
#	104423
#
# Disc length: 1627 seconds
#
# Revision: 1
# Processed by: cddbd v1.5.2PL0 Copyright (c) Steve Scherf et al.
# Submitted via: audiograbber 1.83.01
#
DISCID=48065907
DTITLE=Kelvin Cummings - One Year
DYEAR=2017
DGENRE=Acoustic
TTITLE0=Blue Lake
TTITLE1=Get Back Up
TTITLE2=One Year
TTITLE3=Get It Done
TTITLE4=I Can't Stay
TTITLE5=Crossroads
TTITLE6=It Will Rain
EXTD=
EXTT0=
EXTT1=
EXTT2=
EXTT3=
EXTT4=
EXTT5=
EXTT6=
PLAYORDER=
